<mxfile host="app.diagrams.net" agent="Mozilla/5.0 (Macintosh; Intel Mac OS X 10_15_7) AppleWebKit/537.36 (KHTML, like Gecko) Chrome/116.0.0.0 Safari/537.36" version="24.7.17">
  <diagram name="Страница — 1" id="83zHtWR6xDJZPPRdprW6">
    <mxGraphModel dx="2631" dy="566" grid="1" gridSize="10" guides="1" tooltips="1" connect="1" arrows="1" fold="1" page="1" pageScale="1" pageWidth="827" pageHeight="1169" math="0" shadow="0">
      <root>
        <mxCell id="0" />
        <mxCell id="1" parent="0" />
        <mxCell id="mW3XSaCx8TKVYnGYRp6_-20" value="&lt;span style=&quot;text-align: left;&quot;&gt;do: route Requests&lt;/span&gt;&lt;div style=&quot;text-align: left;&quot;&gt;&lt;span style=&quot;&quot;&gt;interact: add Route&lt;/span&gt;&lt;span style=&quot;text-align: left;&quot;&gt;&lt;br&gt;&lt;/span&gt;&lt;/div&gt;&lt;div style=&quot;text-align: left;&quot;&gt;&lt;span style=&quot;&quot;&gt;know: get routes&lt;/span&gt;&lt;/div&gt;" style="rounded=0;whiteSpace=wrap;html=1;" parent="1" vertex="1">
          <mxGeometry x="-620" y="629" width="120" height="60" as="geometry" />
        </mxCell>
        <mxCell id="mW3XSaCx8TKVYnGYRp6_-21" value="Responce Cacher&lt;div&gt;Request Validator&lt;/div&gt;" style="rounded=0;whiteSpace=wrap;html=1;" parent="1" vertex="1">
          <mxGeometry x="-500" y="630" width="120" height="60" as="geometry" />
        </mxCell>
        <mxCell id="mW3XSaCx8TKVYnGYRp6_-24" value="Distributor" style="rounded=0;whiteSpace=wrap;html=1;" parent="1" vertex="1">
          <mxGeometry x="-620" y="570" width="240" height="60" as="geometry" />
        </mxCell>
        <mxCell id="mW3XSaCx8TKVYnGYRp6_-25" value="&lt;div style=&quot;text-align: left;&quot;&gt;know: upload Rules&lt;/div&gt;&lt;div style=&quot;text-align: left;&quot;&gt;know: upload Config&lt;/div&gt;&lt;div style=&quot;text-align: left;&quot;&gt;&lt;font face=&quot;Arial, sans-serif&quot;&gt;&lt;span style=&quot;font-size: 10.6667px; white-space-collapse: preserve;&quot;&gt;do: Validate Request&lt;/span&gt;&lt;/font&gt;&lt;/div&gt;&lt;div style=&quot;text-align: left;&quot;&gt;know: get schema&lt;/div&gt;&lt;div style=&quot;text-align: left;&quot;&gt;interact: check token&lt;/div&gt;" style="rounded=0;whiteSpace=wrap;html=1;" parent="1" vertex="1">
          <mxGeometry x="-650" y="245" width="140" height="111" as="geometry" />
        </mxCell>
        <mxCell id="mW3XSaCx8TKVYnGYRp6_-26" value="OpenApi Generator&lt;div&gt;Autentication provider&lt;/div&gt;&lt;div&gt;OpenApi schema&lt;/div&gt;" style="rounded=0;whiteSpace=wrap;html=1;" parent="1" vertex="1">
          <mxGeometry x="-510" y="246" width="140" height="110" as="geometry" />
        </mxCell>
        <mxCell id="mW3XSaCx8TKVYnGYRp6_-27" value="Request Validator" style="rounded=0;whiteSpace=wrap;html=1;" parent="1" vertex="1">
          <mxGeometry x="-650" y="186" width="280" height="60" as="geometry" />
        </mxCell>
        <mxCell id="mW3XSaCx8TKVYnGYRp6_-28" value="&lt;div style=&quot;text-align: left;&quot;&gt;know: upload Rules&lt;/div&gt;&lt;div style=&quot;text-align: left;&quot;&gt;know: upload Config&lt;/div&gt;&lt;div style=&quot;text-align: left;&quot;&gt;&lt;span style=&quot;background-color: initial;&quot; id=&quot;docs-internal-guid-3d343022-7fff-2825-82aa-aa383416bce2&quot;&gt;&lt;span style=&quot;font-size: 8pt; font-family: Arial, sans-serif; background-color: transparent; font-variant-numeric: normal; font-variant-east-asian: normal; font-variant-alternates: normal; vertical-align: baseline; white-space-collapse: preserve;&quot;&gt;do: Store response&lt;/span&gt;&lt;/span&gt;&lt;/div&gt;&lt;div style=&quot;text-align: left;&quot;&gt;&lt;span style=&quot;background-color: initial;&quot;&gt;interact: Find&amp;nbsp;&lt;/span&gt;&lt;span style=&quot;background-color: initial;&quot; id=&quot;docs-internal-guid-38511d8e-7fff-0f09-29a9-b0846342d782&quot;&gt;&lt;span style=&quot;font-size: 10pt; font-family: Arial, sans-serif; background-color: transparent; font-variant-numeric: normal; font-variant-east-asian: normal; font-variant-alternates: normal; vertical-align: baseline; white-space-collapse: preserve;&quot;&gt;Response&lt;/span&gt;&lt;/span&gt;&lt;/div&gt;" style="rounded=0;whiteSpace=wrap;html=1;" parent="1" vertex="1">
          <mxGeometry x="-960" y="245" width="140" height="111" as="geometry" />
        </mxCell>
        <mxCell id="mW3XSaCx8TKVYnGYRp6_-29" value="" style="rounded=0;whiteSpace=wrap;html=1;" parent="1" vertex="1">
          <mxGeometry x="-820" y="246" width="140" height="110" as="geometry" />
        </mxCell>
        <mxCell id="mW3XSaCx8TKVYnGYRp6_-30" value="Responce Cacher" style="rounded=0;whiteSpace=wrap;html=1;" parent="1" vertex="1">
          <mxGeometry x="-960" y="186" width="280" height="60" as="geometry" />
        </mxCell>
        <mxCell id="mW3XSaCx8TKVYnGYRp6_-31" value="&lt;div style=&quot;text-align: left;&quot;&gt;do: generate OpenApi schema&lt;/div&gt;&lt;div style=&quot;text-align: left;&quot;&gt;know: get definitions&lt;/div&gt;" style="rounded=0;whiteSpace=wrap;html=1;" parent="1" vertex="1">
          <mxGeometry x="-650" y="439" width="150" height="111" as="geometry" />
        </mxCell>
        <mxCell id="mW3XSaCx8TKVYnGYRp6_-32" value="OpenApi Schema" style="rounded=0;whiteSpace=wrap;html=1;" parent="1" vertex="1">
          <mxGeometry x="-500" y="440" width="140" height="110" as="geometry" />
        </mxCell>
        <mxCell id="mW3XSaCx8TKVYnGYRp6_-33" value="OpenApi Generator" style="rounded=0;whiteSpace=wrap;html=1;" parent="1" vertex="1">
          <mxGeometry x="-650" y="380" width="290" height="60" as="geometry" />
        </mxCell>
        <mxCell id="mW3XSaCx8TKVYnGYRp6_-34" value="&lt;div style=&quot;text-align: left;&quot;&gt;&lt;div&gt;&lt;span style=&quot;background-color: initial;&quot;&gt;know: upload Config&lt;/span&gt;&lt;br&gt;&lt;/div&gt;&lt;div&gt;interact: autentificate user&lt;/div&gt;&lt;div&gt;interact: validate token&lt;/div&gt;&lt;div&gt;do: expire all token&lt;/div&gt;&lt;/div&gt;" style="rounded=0;whiteSpace=wrap;html=1;" parent="1" vertex="1">
          <mxGeometry x="-965" y="629" width="150" height="111" as="geometry" />
        </mxCell>
        <mxCell id="mW3XSaCx8TKVYnGYRp6_-35" value="" style="rounded=0;whiteSpace=wrap;html=1;" parent="1" vertex="1">
          <mxGeometry x="-815" y="630" width="140" height="110" as="geometry" />
        </mxCell>
        <mxCell id="mW3XSaCx8TKVYnGYRp6_-36" value="Autentication Provider" style="rounded=0;whiteSpace=wrap;html=1;" parent="1" vertex="1">
          <mxGeometry x="-965" y="570" width="290" height="60" as="geometry" />
        </mxCell>
        <mxCell id="mW3XSaCx8TKVYnGYRp6_-37" value="&lt;div style=&quot;text-align: left;&quot;&gt;&lt;div&gt;do: store info for openApi&#39;s file&lt;/div&gt;&lt;/div&gt;" style="rounded=0;whiteSpace=wrap;html=1;" parent="1" vertex="1">
          <mxGeometry x="-965" y="439" width="150" height="111" as="geometry" />
        </mxCell>
        <mxCell id="mW3XSaCx8TKVYnGYRp6_-38" value="" style="rounded=0;whiteSpace=wrap;html=1;" parent="1" vertex="1">
          <mxGeometry x="-815" y="440" width="140" height="110" as="geometry" />
        </mxCell>
        <mxCell id="mW3XSaCx8TKVYnGYRp6_-39" value="OpenApi schema" style="rounded=0;whiteSpace=wrap;html=1;" parent="1" vertex="1">
          <mxGeometry x="-965" y="380" width="290" height="60" as="geometry" />
        </mxCell>
      </root>
    </mxGraphModel>
  </diagram>
</mxfile>
